<svg width="714" height="254" viewBox="0 0 714 254" fill="none" xmlns="http://www.w3.org/2000/svg">
<path d="M492.731 27.1427V105.945H480.73V27.1427L492.731 27.1427ZM455.571 34.9507V24.54L517.745 24.54V34.9507L455.571 34.9507Z" fill="black"/>
<path d="M355.229 105.945V24.54L383.714 24.54C390.654 24.54 396.535 25.263 401.354 26.7089C406.27 28.1548 410.03 30.6129 412.632 34.0831C415.235 37.4569 416.536 42.132 416.536 48.1085C416.536 52.2535 415.813 55.9647 414.368 59.2421C413.018 62.5195 410.946 65.1222 408.15 67.05C405.355 68.8815 401.884 69.7973 397.739 69.7973C400.921 69.7973 403.379 70.4238 405.114 71.677C406.945 72.8337 408.295 74.4242 409.162 76.4485C410.03 78.3764 410.608 80.4489 410.897 82.666C411.187 84.883 411.379 87.0519 411.476 89.1726C411.669 91.2933 412.006 93.1248 412.488 94.6671C412.97 96.2094 413.789 97.2697 414.946 97.8481C416.199 98.4265 417.982 98.2819 420.296 97.4143V104.644C418.946 105.801 417.211 106.572 415.091 106.957C412.97 107.439 410.801 107.295 408.584 106.524C406.463 105.849 404.632 104.403 403.089 102.186C401.643 99.8724 400.921 96.5468 400.921 92.209C400.921 88.1604 400.728 84.7866 400.342 82.0876C400.053 79.3885 399.33 77.3161 398.173 75.8701C397.017 74.3278 395.233 73.2193 392.823 72.5445C390.414 71.7734 387.136 71.3878 382.991 71.3878C378.943 71.2914 373.737 71.3396 367.375 71.5324V105.945H355.229ZM367.375 62.5677L384.148 62.5677C389.064 62.5677 393.113 62.2785 396.294 61.7001C399.475 61.0254 401.836 59.724 403.379 57.7962C405.017 55.7719 405.837 52.8318 405.837 48.9761C405.837 44.4455 404.873 41.1681 402.945 39.1438C401.017 37.1195 398.221 35.8664 394.558 35.3844C390.895 34.8061 386.365 34.5169 380.967 34.5169H367.375V62.5677Z" fill="black"/>
<path d="M240.465 105.945L267.793 24.54L287.602 24.54L315.508 105.945H302.639L277.914 29.6008L253.189 105.945H240.465ZM257.093 81.6538L257.527 72.1108H298.012L298.591 81.6538H257.093Z" fill="black"/>
<path d="M517.746 24.5405L455.571 24.5405V34.9519H480.73V105.946H492.731V34.9519L517.746 34.9519V24.5405ZM519.385 36.5913L494.37 36.5913V107.586H479.091V36.5913H453.933V22.9023L519.385 22.9023V36.5913Z" fill="black"/>
<path d="M416.536 48.1089C416.536 42.133 415.235 37.458 412.632 34.0843C410.192 30.8311 406.735 28.4673 402.262 26.9931L401.353 26.7106C396.835 25.3551 391.384 24.6345 385.002 24.5498L383.713 24.5405V22.9023C390.752 22.9023 396.799 23.6339 401.815 25.1374H401.816C407 26.662 411.079 29.2909 413.929 33.0829L414.196 33.4397C416.909 37.158 418.175 42.1069 418.175 48.1089C418.175 52.4462 417.417 56.389 415.866 59.9051C414.401 63.4445 412.137 66.2925 409.08 68.401L409.048 68.4223C408.011 69.1016 406.897 69.6582 405.713 70.1042C405.817 70.172 405.919 70.2422 406.02 70.3138C408.112 71.644 409.664 73.4781 410.656 75.7774L410.993 76.5654C411.743 78.4191 412.252 80.384 412.522 82.4548L412.725 84.1421C412.907 85.8027 413.034 87.4383 413.108 89.0486C413.294 91.0776 413.615 92.7817 414.051 94.1793L414.204 94.6131C414.577 95.5546 415.087 96.0795 415.66 96.372C416.307 96.6555 417.55 96.6945 419.719 95.8812L421.935 95.0508V105.398L421.362 105.889C419.749 107.272 417.729 108.145 415.383 108.571C412.975 109.105 410.532 108.929 408.086 108.086V108.087C405.553 107.281 403.446 105.571 401.743 103.122L401.721 103.09L401.698 103.056C400.02 100.371 399.281 96.6894 399.281 92.2096C399.281 88.2056 399.09 84.9158 398.719 82.3208L398.715 82.2917L398.712 82.2638C398.442 79.7391 397.783 78.0089 396.892 76.8956L396.877 76.8758L396.862 76.8545C395.979 75.6767 394.548 74.73 392.381 74.1234L392.352 74.1154L392.323 74.1061C390.144 73.4091 387.059 73.0277 382.99 73.0277H382.951C379.284 72.9404 374.64 72.9723 369.013 73.1259V107.586H353.59V22.9023L383.713 22.9023V24.5405L355.229 24.5405V105.946H367.375V71.5328C373.736 71.34 378.941 71.2918 382.99 71.3882C387.135 71.3882 390.413 71.775 392.823 72.5462C395.233 73.221 397.016 74.3294 398.172 75.8716C399.329 77.3175 400.052 79.3898 400.341 82.0887C400.727 84.7876 400.92 88.1612 400.92 92.2096L400.929 93.0121C401.014 96.9598 401.733 100.018 403.088 102.187C404.631 104.404 406.463 105.85 408.584 106.525C410.801 107.296 412.97 107.44 415.09 106.958C417.211 106.573 418.946 105.802 420.295 104.645V97.4159C418.127 98.2291 416.424 98.4064 415.187 97.9491L414.945 97.8496C413.861 97.3074 413.073 96.3409 412.582 94.9513L412.488 94.6688C412.006 93.1265 411.668 91.294 411.475 89.1733C411.403 87.583 411.277 85.9656 411.096 84.3211L410.897 82.667C410.608 80.4502 410.03 78.3777 409.162 76.45C408.349 74.5522 407.111 73.0355 405.451 71.9002L405.112 71.6787C403.377 70.4256 400.92 69.7978 397.739 69.7978C401.624 69.7978 404.917 68.9932 407.617 67.3836L408.15 67.0507C410.945 65.1229 413.018 62.5204 414.367 59.2432C415.723 56.1708 416.443 52.7171 416.528 48.8823L416.536 48.1089ZM404.197 48.9778C404.197 44.8924 403.373 42.2052 402.032 40.5853L401.758 40.2749C400.161 38.5982 397.756 37.4594 394.344 37.0105L394.323 37.0079L394.302 37.0039C390.752 36.4434 386.313 36.1576 380.966 36.1576H369.013V60.9291L384.147 60.9291V62.5686L367.375 62.5686V34.5181H380.966C386.364 34.5181 390.895 34.8072 394.558 35.3856C398.221 35.8676 401.016 37.1207 402.944 39.1448C404.872 41.1691 405.835 44.4472 405.835 48.9778L405.826 49.6888C405.73 53.1965 404.914 55.8995 403.377 57.7974L403.079 58.1515C401.537 59.8854 399.275 61.0685 396.293 61.7011C393.112 62.2795 389.063 62.5686 384.147 62.5686V60.9291C388.998 60.9291 392.933 60.6425 395.978 60.0908C398.893 59.4683 400.862 58.3179 402.097 56.7733L402.104 56.7654L402.344 56.451C403.511 54.8258 404.197 52.403 404.197 48.9778Z" fill="black"/>
<path d="M288.772 22.9023L317.802 107.586H301.447L293.58 83.2945H262.248L254.381 107.586H238.185L266.613 22.9023L288.772 22.9023ZM267.792 24.5405L240.465 105.946H253.188L261.055 81.655H294.771L302.638 105.946H315.508L287.602 24.5405L267.792 24.5405ZM291.68 72.1125H264.146L277.913 29.6023L291.68 72.1125ZM266.4 70.473H289.428L277.913 34.92L266.4 70.473Z" fill="black"/>
<path d="M627.464 105.946H619.762V69.2002H646.261V75.9227H627.464V83.6242H641.561V89.9551H627.464V105.946Z" fill="black"/>
<path d="M582.022 106.86C576.017 106.86 571.427 105.141 568.25 101.704C565.074 98.2226 563.486 93.5452 563.486 87.6711C563.486 83.7986 564.16 80.4482 565.509 77.62C566.901 74.7482 568.968 72.5291 571.71 70.9627C574.451 69.3528 577.888 68.5479 582.022 68.5479C588.07 68.5479 592.66 70.2883 595.793 73.7692C598.926 77.2066 600.492 81.8406 600.492 87.6711C600.492 91.4566 599.796 94.807 598.404 97.7223C597.011 100.594 594.945 102.835 592.203 104.445C589.462 106.055 586.068 106.86 582.022 106.86ZM581.891 99.2234C584.328 99.2234 586.351 98.723 587.961 97.7223C589.571 96.7215 590.768 95.3509 591.551 93.6104C592.334 91.8265 592.726 89.8467 592.726 87.6711C592.726 85.4956 592.334 83.5158 591.551 81.7318C590.768 79.9478 589.571 78.5337 587.961 77.4895C586.395 76.4452 584.371 75.923 581.891 75.923C578.41 75.923 575.734 77.0108 573.863 79.1864C572.036 81.362 571.122 84.1902 571.122 87.6711C571.122 89.8032 571.514 91.7612 572.297 93.5452C573.124 95.2856 574.32 96.678 575.887 97.7223C577.453 98.723 579.455 99.2234 581.891 99.2234Z" fill="black"/>
<path d="M641.56 89.9551V83.624H627.463V75.9226H646.26V69.2001H619.761V105.946H627.463V89.9551H641.56ZM647 76.6628H628.203V82.8838H642.3V90.6953H628.203V106.686H619.021V68.46H647V76.6628Z" fill="black"/>
<path d="M600.492 87.6713C600.492 82.0232 599.022 77.4974 596.083 74.095L595.793 73.7687C592.759 70.3966 588.355 68.6585 582.585 68.5531L582.021 68.5478C577.887 68.5479 574.45 69.3534 571.709 70.9633C568.968 72.5296 566.901 74.748 565.509 77.6194L565.264 78.1566C564.078 80.8692 563.485 84.0409 563.485 87.6713L563.503 88.759C563.69 94.1254 565.272 98.4406 568.25 101.704C571.327 105.034 575.731 106.75 581.462 106.854L582.021 106.86C585.814 106.86 589.035 106.152 591.681 104.737L592.203 104.444C594.772 102.935 596.75 100.872 598.135 98.2537L598.404 97.7218C599.709 94.9888 600.402 91.8734 600.484 88.3756L600.492 87.6713ZM591.985 87.6713C591.985 85.8466 591.698 84.1811 591.132 82.6679L590.874 82.0285C590.148 80.375 589.045 79.0745 587.559 78.1102L587.551 78.1049C586.139 77.1637 584.271 76.663 581.891 76.663C578.575 76.663 576.125 77.6913 574.424 79.6688C572.736 81.6821 571.861 84.3274 571.861 87.6713C571.862 89.708 572.235 91.5611 572.972 93.241C573.74 94.8528 574.843 96.1337 576.285 97.0984L576.556 97.2629C577.934 98.0608 579.699 98.4832 581.891 98.4832V99.2234L581.438 99.218C579.205 99.1593 577.354 98.6599 575.886 97.7218C574.32 96.6776 573.123 95.2851 572.297 93.5448C571.611 91.9837 571.226 90.2894 571.14 88.4618L571.121 87.6713C571.121 84.1903 572.036 81.3615 573.863 79.1859C575.734 77.0105 578.41 75.9229 581.891 75.9229L582.351 75.9295C584.622 75.9908 586.492 76.5105 587.961 77.4894C589.57 78.5336 590.767 79.9476 591.55 81.7314C592.333 83.5154 592.725 85.4957 592.725 87.6713L592.707 88.4777C592.621 90.3384 592.235 92.0489 591.55 93.6098L591.399 93.9321C590.616 95.5205 589.47 96.7836 587.961 97.7218L587.654 97.9035C586.096 98.7832 584.175 99.2234 581.891 99.2234V98.4832C584.228 98.4832 586.107 98.0042 587.571 97.0944L587.844 96.9166C589.19 96.0125 590.198 94.8141 590.876 93.3074C591.612 91.6291 591.985 89.7539 591.985 87.6713ZM601.232 87.6713C601.232 91.5482 600.518 95.011 599.071 98.0415L599.07 98.0455C597.705 100.86 595.714 103.102 593.107 104.759L592.578 105.082C589.696 106.775 586.164 107.6 582.021 107.6C576.064 107.6 571.362 105.943 568.025 102.541L567.707 102.205L567.703 102.203C564.374 98.554 562.746 93.6823 562.746 87.6713C562.746 83.714 563.434 80.2494 564.841 77.301L564.843 77.2971L565.124 76.7413C566.477 74.1861 568.376 72.1471 570.812 70.6356L571.342 70.3199C574.224 68.6291 577.798 67.8077 582.021 67.8076C588.212 67.8076 593.029 69.594 596.34 73.2713L596.642 73.6122C599.724 77.1793 601.232 81.8913 601.232 87.6713Z" fill="black"/>
<path d="M686.456 156.181V234.983H674.455V156.181H686.456ZM649.296 163.989V153.578H711.471V163.989H649.296Z" fill="black"/>
<path d="M555.462 234.983H543.461V153.578H555.462V234.983ZM597.972 153.578H609.829V234.983H597.972V153.578ZM604.768 197.968H549.245V188.569H604.768V197.968Z" fill="black"/>
<path d="M458.41 236.718C450.506 236.718 443.614 235.079 437.734 231.802C431.95 228.525 427.467 223.753 424.286 217.487C421.105 211.222 419.563 203.607 419.66 194.642C419.852 185.581 421.636 177.869 425.009 171.507C428.383 165.145 433.107 160.325 439.179 157.048C445.349 153.771 452.434 152.132 460.434 152.132C471.134 152.132 479.569 154.542 485.738 159.361C491.907 164.085 495.908 171.025 497.739 180.183L486.172 181.773C485.208 177.339 483.473 173.772 480.966 171.073C478.46 168.374 475.424 166.446 471.857 165.29C468.387 164.037 464.579 163.41 460.434 163.41C450.699 163.41 443.421 166.205 438.601 171.796C433.781 177.291 431.371 184.665 431.371 193.919C431.371 203.848 433.974 211.559 439.179 217.054C444.481 222.452 451.904 225.151 461.447 225.151C465.784 225.151 469.785 224.428 473.448 222.982C477.111 221.44 480.195 219.174 482.702 216.186C485.208 213.101 486.798 209.294 487.473 204.763H467.375V195.654H499.33V234.983H491.088L488.341 218.933H488.051C487.377 220.765 486.268 222.741 484.726 224.862C483.28 226.886 481.352 228.814 478.942 230.645C476.532 232.38 473.592 233.826 470.122 234.983C466.748 236.14 462.844 236.718 458.41 236.718Z" fill="black"/>
<path d="M354.977 232.381V156.181H366.833V232.381H354.977ZM343.843 234.983V224.573H377.822V234.983H343.843ZM343.843 163.989V153.578H377.822V163.989H343.843Z" fill="black"/>
<path d="M243.462 234.983V153.578H299.853V163.989H255.319V188.714H290.021V198.691H255.319V225.151H301.299V234.983H243.462Z" fill="black"/>
<path d="M711.471 153.579H649.296V163.99H674.455V234.984H686.457V163.99H711.471V153.579ZM713.111 165.629H688.095V236.624H672.817V165.629H647.658V151.94H713.111V165.629Z" fill="black"/>
<path d="M555.462 153.579H543.461V234.984H555.462V197.968H597.972V234.984H609.829V153.579H597.972V188.57H555.462V153.579ZM611.467 236.624H596.334V199.608H557.101V236.624H541.822V151.94H557.101V186.931H596.334V151.94H611.467V236.624Z" fill="black"/>
<path d="M431.373 193.92C431.373 184.955 433.634 177.755 438.157 172.318L438.602 171.797C443.422 166.206 450.7 163.411 460.435 163.411L461.209 163.418C465.055 163.491 468.605 164.116 471.859 165.291C475.425 166.447 478.461 168.375 480.967 171.074C483.317 173.605 484.989 176.898 485.983 180.954L486.172 181.775L497.74 180.184C495.909 171.027 491.908 164.086 485.739 159.363C479.762 154.694 471.66 152.286 461.431 152.14L460.435 152.132C452.435 152.132 445.349 153.772 439.18 157.049L438.615 157.361C432.814 160.629 428.279 165.345 425.011 171.508L424.699 172.109C421.527 178.354 419.847 185.865 419.66 194.643L419.661 196.309C419.763 204.554 421.306 211.614 424.288 217.488C427.469 223.754 431.951 228.526 437.734 231.803C443.247 234.876 449.65 236.508 456.941 236.7L458.411 236.719C462.845 236.719 466.75 236.141 470.124 234.984C473.377 233.9 476.164 232.561 478.486 230.969L478.943 230.646C481.353 228.815 483.281 226.887 484.727 224.863C486.269 222.742 487.377 220.765 488.052 218.934H488.341L491.09 234.984H499.331V195.655H467.377V204.765H487.474C486.799 209.295 485.209 213.102 482.702 216.187L482.226 216.739C479.809 219.455 476.883 221.536 473.449 222.982C469.786 224.428 465.785 225.152 461.447 225.152V223.513C465.596 223.513 469.387 222.821 472.838 221.461C476.254 220.018 479.116 217.911 481.446 215.134C483.387 212.738 484.748 209.841 485.505 206.403H465.737V194.016H500.97V236.623H489.706L487.492 223.687C487.058 224.385 486.582 225.095 486.06 225.814L486.061 225.815C484.501 227.999 482.449 230.041 479.935 231.952L479.918 231.964L479.901 231.977C477.333 233.826 474.24 235.336 470.653 236.533L470.654 236.535C467.074 237.762 462.984 238.358 458.411 238.358C450.277 238.358 443.101 236.67 436.937 233.234L436.927 233.229C431.036 229.891 426.439 225.078 423.141 218.838L422.826 218.231C419.498 211.674 417.923 203.783 418.022 194.625V194.608L418.078 192.888C418.453 184.363 420.262 176.964 423.563 170.74L423.897 170.123C427.392 163.791 432.23 158.937 438.402 155.606L438.412 155.601L439.018 155.285C445.311 152.077 452.463 150.494 460.435 150.494C471.361 150.494 480.19 152.953 486.736 158.062L487.342 158.538C493.54 163.533 497.514 170.693 499.348 179.862L499.689 181.57L484.894 183.605L484.571 182.122C483.656 177.909 482.032 174.629 479.767 172.19C477.455 169.699 474.659 167.921 471.353 166.849L471.327 166.841L471.302 166.832C468.031 165.651 464.414 165.051 460.435 165.051C451.015 165.051 444.26 167.744 439.843 172.867L439.834 172.878C435.341 178.001 433.012 184.954 433.012 193.92C433.012 203.55 435.528 210.802 440.35 215.906L440.817 216.368C445.705 221.073 452.511 223.513 461.447 223.513V225.152L460.559 225.144C451.737 224.986 444.779 222.455 439.684 217.553L439.18 217.054C434.138 211.731 431.538 204.328 431.381 194.844L431.373 193.92Z" fill="black"/>
<path d="M377.822 224.574H366.834V163.99H377.822V153.579H343.844V163.99H354.977V224.574H343.844V234.984H377.822V224.574ZM379.462 165.629H368.472V222.935H379.462V236.624H342.204V222.935H353.338V165.629H342.204V151.94H379.462V165.629Z" fill="black"/>
<path d="M301.299 225.153H255.319V198.691H290.021V188.715H255.319V163.99H299.853V153.579H243.463V234.984H301.299V225.153ZM301.492 165.629H256.958V187.076H291.661V200.331H256.958V223.513H302.938V236.624H241.823V151.94H301.492V165.629Z" fill="black"/>
<path d="M97.7968 248.567V254H67.9144V248.567H97.7968ZM160.278 186.086V176.578C160.278 158.583 152.674 142.375 140.491 130.966L136.257 127L140.491 123.034C152.484 111.803 160.04 95.9225 160.273 78.2648L160.278 77.4225V67.9144C160.278 33.407 132.304 5.43316 97.7968 5.43316H67.9144C33.6767 5.43316 5.87097 32.9715 5.43846 67.1066L5.43316 67.9144V77.4225C5.43316 95.4169 13.0363 111.625 25.2185 123.034L29.4526 127L25.2185 130.966C13.2266 142.196 5.67164 158.078 5.43846 175.735L5.43316 176.578V186.086C5.43316 220.593 33.407 248.567 67.9144 248.567V254C30.4063 254 0 223.594 0 186.086V176.578C1.07255e-06 157.018 8.27175 139.392 21.5045 127C8.27175 114.608 0 96.9823 0 77.4225V67.9144C2.05673e-06 30.4063 30.4063 0 67.9144 0H97.7968C135.305 0 165.711 30.4063 165.711 67.9144V77.4225C165.711 96.9826 157.439 114.608 144.205 127C157.439 139.392 165.711 157.017 165.711 176.578V186.086C165.711 223.594 135.305 254 97.7968 254V248.567C132.035 248.567 159.84 221.029 160.273 186.893L160.278 186.086Z" fill="#FF0000"/>
<path d="M95.8375 233.442V238.345H69.8735V233.442H95.8375ZM149.941 179.338V171.077C149.941 155.496 143.358 141.46 132.808 131.581L128.987 128.002L132.808 124.423C143.358 114.544 149.941 100.508 149.941 84.9266V76.6654C149.941 47.252 126.469 23.3205 97.2343 22.5793L95.8375 22.5621H69.8735C40.4599 22.5622 16.5284 46.0336 15.7874 75.2687L15.7701 76.6654V84.9266C15.7701 100.508 22.3525 114.544 32.9013 124.423L36.7228 128.002L32.9013 131.581C22.3526 141.46 15.7701 155.496 15.7701 171.077V179.338C15.7704 209.219 39.993 233.441 69.8735 233.442V238.345C37.2849 238.345 10.8665 211.927 10.8662 179.338V171.077C10.8662 154.083 18.0526 138.769 29.5493 128.002C18.0525 117.235 10.8662 101.921 10.8662 84.9266V76.6654C10.8664 44.0768 37.2848 17.6583 69.8735 17.6582H95.8375C128.426 17.6585 154.845 44.0769 154.845 76.6654V84.9266C154.845 101.921 147.657 117.235 136.16 128.002C147.657 138.769 154.845 154.083 154.845 171.077V179.338C154.845 211.927 128.426 238.345 95.8375 238.345V233.442C125.251 233.441 149.183 209.97 149.924 180.735L149.941 179.338Z" fill="#FF0000"/>
<path d="M94.0496 220.281V224.763H71.1232V220.281H94.0496ZM141.675 172.656V165.362C141.675 151.645 135.879 139.292 126.593 130.595L123.099 127.323L126.593 124.05C135.589 115.626 141.309 103.769 141.657 90.5668L141.675 89.2854V81.9899C141.675 55.6875 120.352 34.3649 94.0496 34.3649H71.1232C45.2319 34.3649 24.1663 55.0262 23.5141 80.7603L23.4982 81.9899V89.2854C23.4984 103.001 29.293 115.356 38.5787 124.052L42.0725 127.323L38.5787 130.594C29.2928 139.29 23.4982 151.646 23.4982 165.362V172.656C23.4982 198.958 44.8208 220.281 71.1232 220.281V224.763C42.3453 224.763 19.0161 201.434 19.0161 172.656V165.362C19.0161 150.355 25.362 136.831 35.5145 127.323C25.3622 117.815 19.0163 104.292 19.0161 89.2854V81.9899C19.0161 53.212 42.3453 29.8828 71.1232 29.8828H94.0496C122.828 29.8828 146.157 53.212 146.157 81.9899V89.2854C146.157 104.293 139.81 117.815 129.657 127.323C139.81 136.831 146.157 150.354 146.157 165.362V172.656C146.157 201.434 122.828 224.763 94.0496 224.763V220.281C120.352 220.281 141.675 198.958 141.675 172.656Z" fill="#FF0000"/>
<path d="M92.8984 208.727V212.829H72.8133V208.727H92.8984ZM134.444 167.181V160.791C134.444 148.825 129.389 138.048 121.287 130.461L118.09 127.467L121.287 124.474C129.388 116.887 134.444 106.11 134.444 94.1455V87.7547C134.444 65.1684 116.419 46.792 93.9702 46.2234L92.8984 46.2088H72.8133C50.227 46.2089 31.8507 64.2336 31.282 86.6829L31.2674 87.7547V94.1455C31.2674 106.11 36.3226 116.887 44.4232 124.474L47.6199 127.467L44.4232 130.461C36.5755 137.81 31.5875 148.155 31.2833 159.672L31.2674 160.791V167.181C31.2674 190.126 49.8684 208.727 72.8133 208.727V212.829C47.603 212.829 27.166 192.392 27.166 167.181V160.791C27.1661 147.644 32.725 135.797 41.6191 127.467C32.7255 119.138 27.166 107.292 27.166 94.1455V87.7547C27.1663 62.5446 47.6031 42.1075 72.8133 42.1074H92.8984C118.109 42.1075 138.545 62.5446 138.546 87.7547V94.1455C138.546 107.292 132.985 119.138 124.091 127.467C132.986 135.797 138.546 147.644 138.546 160.791V167.181C138.546 192.392 118.109 212.829 92.8984 212.829V208.727C115.843 208.727 134.444 190.126 134.444 167.181Z" fill="#FF0000"/>
</svg>
